<svg width="24" height="24" viewBox="0 0 24 24" fill="none" xmlns="http://www.w3.org/2000/svg">
<path d="M18.7622 19.3656C17.3323 20.6787 15.551 21.5472 13.6356 21.8651C11.7202 22.1829 9.75371 21.9364 7.97616 21.1555C6.19861 20.3747 4.68694 19.0933 3.62569 17.4679C2.56445 15.8425 1.99957 13.9433 2 12.0023H3.66639C3.66627 13.68 4.17294 15.3187 5.12005 16.7037C6.06716 18.0887 7.41057 19.1556 8.97435 19.7645C10.5381 20.3734 12.2494 20.496 13.8841 20.1163C15.5187 19.7366 17.0006 18.8722 18.1356 17.6364H15.7144C15.4934 17.6364 15.2815 17.5486 15.1252 17.3924C14.969 17.2362 14.8812 17.0244 14.8812 16.8034C14.8812 16.5825 14.969 16.3707 15.1252 16.2145C15.2815 16.0583 15.4934 15.9705 15.7144 15.9705H19.5954C19.8164 15.9705 20.0283 16.0583 20.1846 16.2145C20.3408 16.3707 20.4286 16.5825 20.4286 16.8034V20.68C20.4286 20.9009 20.3408 21.1128 20.1846 21.269C20.0283 21.4252 19.8164 21.513 19.5954 21.513C19.3744 21.513 19.1625 21.4252 19.0062 21.269C18.85 21.1128 18.7622 20.9009 18.7622 20.68V19.364V19.3656ZM5.86102 6.36986H8.28229C8.50326 6.36986 8.71519 6.45762 8.87144 6.61383C9.0277 6.77003 9.11548 6.9819 9.11548 7.20281C9.11548 7.42373 9.0277 7.63559 8.87144 7.7918C8.71519 7.94801 8.50326 8.03577 8.28229 8.03577H4.3996C4.17862 8.03577 3.9667 7.94801 3.81044 7.7918C3.65419 7.63559 3.56641 7.42373 3.56641 7.20281V3.32291C3.56641 3.102 3.65419 2.89013 3.81044 2.73392C3.9667 2.57771 4.17862 2.48995 4.3996 2.48995C4.62058 2.48995 4.8325 2.57771 4.98876 2.73392C5.14501 2.89013 5.23279 3.102 5.23279 3.32291V4.63898C6.66248 3.32425 8.4443 2.45434 10.3605 2.13558C12.2767 1.81681 14.2443 2.06299 16.0228 2.84403C17.8014 3.62507 19.3138 4.90714 20.3753 6.53356C21.4368 8.15998 22.0013 10.0603 22 12.0023H20.3336C20.3338 10.3243 19.827 8.68546 18.8797 7.30031C17.9323 5.91516 16.5886 4.84833 15.0246 4.23955C13.4605 3.63078 11.749 3.50844 10.1142 3.88856C8.47935 4.26868 6.9975 5.13354 5.86269 6.36986H5.86102Z" fill="black"/>
</svg>
