<svg width="24" height="24" viewBox="0 0 24 24" fill="none" xmlns="http://www.w3.org/2000/svg">
<path d="M15.4058 10.6865H12.5354V7.42681C12.5354 7.31978 12.4478 7.2322 12.3408 7.2322H10.8812C10.7742 7.2322 10.6866 7.31978 10.6866 7.42681V10.6865H7.8162C7.70917 10.6865 7.6216 10.774 7.6216 10.8811V12.3406C7.6216 12.4476 7.70917 12.5352 7.8162 12.5352H10.6866V15.7949C10.6866 15.9019 10.7742 15.9895 10.8812 15.9895H12.3408C12.4478 15.9895 12.5354 15.9019 12.5354 15.7949V12.5352H15.4058C15.5129 12.5352 15.6004 12.4476 15.6004 12.3406V10.8811C15.6004 10.774 15.5129 10.6865 15.4058 10.6865ZM22.3143 21.0006L18.7628 17.449C21.7329 13.8269 21.5262 8.46065 18.1303 5.06721C14.5301 1.46457 8.6822 1.46457 5.0674 5.06721C1.46476 8.68202 1.46476 14.5299 5.0674 18.1301C8.46084 21.526 13.8271 21.7328 17.4492 18.7626L21.0007 22.3142C21.0786 22.3823 21.2026 22.3823 21.2683 22.3142L22.3143 21.2681C22.3824 21.2025 22.3824 21.0784 22.3143 21.0006ZM16.841 16.8409C13.9512 19.7283 9.27088 19.7283 6.38099 16.8409C3.49352 13.951 3.49352 9.2707 6.38099 6.3808C9.27088 3.49334 13.9512 3.49334 16.841 6.3808C19.7285 9.2707 19.7285 13.951 16.841 16.8409Z" fill="black"/>
</svg>
