<svg width="24" height="24" viewBox="0 0 24 24" fill="none" xmlns="http://www.w3.org/2000/svg">
<path d="M10.5476 15.3095H12.4524V17.2143H10.5476V15.3095ZM11.5 5.78571C9.39524 5.78571 7.69048 7.49048 7.69048 9.59524H9.59524C9.59524 8.54762 10.4524 7.69048 11.5 7.69048C12.5476 7.69048 13.4048 8.54762 13.4048 9.59524C13.4048 11.5 10.5476 11.2619 10.5476 14.3571H12.4524C12.4524 12.2143 15.3095 11.9762 15.3095 9.59524C15.3095 7.49048 13.6048 5.78571 11.5 5.78571Z" fill="black"/>
<path d="M11.5 1.5C5.92857 1.5 1.5 5.92857 1.5 11.5C1.5 17.0714 5.92857 21.5 11.5 21.5C17.0714 21.5 21.5 17.0714 21.5 11.5C21.5 5.92857 17.0714 1.5 11.5 1.5ZM11.5 20.0714C6.78571 20.0714 2.92857 16.2143 2.92857 11.5C2.92857 6.78571 6.78571 2.92857 11.5 2.92857C16.2143 2.92857 20.0714 6.78571 20.0714 11.5C20.0714 16.2143 16.2143 20.0714 11.5 20.0714Z" fill="black"/>
</svg>
