<svg width="24" height="24" viewBox="0 0 24 24" fill="none" xmlns="http://www.w3.org/2000/svg">
<path fill-rule="evenodd" clip-rule="evenodd" d="M11.5199 0.923834C11.798 0.692055 12.202 0.692055 12.4801 0.923834L21.4801 8.42383C21.6511 8.56633 21.75 8.77742 21.75 9V22.5C21.75 22.9142 21.4142 23.25 21 23.25H15C14.5858 23.25 14.25 22.9142 14.25 22.5V15.75H9.75V22.5C9.75 22.9142 9.41421 23.25 9 23.25H3C2.58579 23.25 2.25 22.9142 2.25 22.5V9C2.25 8.77742 2.34887 8.56633 2.51986 8.42383L11.5199 0.923834ZM3.75 9.35128V21.75H8.25V15C8.25 14.5858 8.58579 14.25 9 14.25H15C15.4142 14.25 15.75 14.5858 15.75 15V21.75H20.25V9.35128L12 2.47628L3.75 9.35128Z" fill="black"/>
</svg>
