<svg width="24" height="24" viewBox="0 0 24 24" fill="none" xmlns="http://www.w3.org/2000/svg">
<path d="M11.5 1.5C5.92857 1.5 1.5 5.92857 1.5 11.5C1.5 17.0714 5.92857 21.5 11.5 21.5C17.0714 21.5 21.5 17.0714 21.5 11.5C21.5 5.92857 17.0714 1.5 11.5 1.5ZM11.5 20.0714C6.78571 20.0714 2.92857 16.2143 2.92857 11.5C2.92857 6.78571 6.78571 2.92857 11.5 2.92857C16.2143 2.92857 20.0714 6.78571 20.0714 11.5C20.0714 16.2143 16.2143 20.0714 11.5 20.0714Z" fill="black"/>
<path d="M15.3571 16.5L11.5 12.6429L7.64286 16.5L6.5 15.3571L10.3571 11.5L6.5 7.64286L7.64286 6.5L11.5 10.3571L15.3571 6.5L16.5 7.64286L12.6429 11.5L16.5 15.3571L15.3571 16.5Z" fill="black"/>
</svg>
