<svg width="24" height="24" viewBox="0 0 24 24" fill="none" xmlns="http://www.w3.org/2000/svg">
<path d="M8.77952 8.2C8.94642 8.39259 9.02987 8.61126 9.02987 8.856C9.02987 9.10015 8.94642 9.3037 8.77952 9.46667L7.09531 11.1111L13.6273 11.1111C13.8853 11.1111 14.1013 11.1964 14.2755 11.3671C14.4503 11.5372 14.5377 11.7481 14.5377 12C14.5377 12.2519 14.4503 12.4631 14.2755 12.6338C14.1013 12.8039 13.8853 12.8889 13.6273 12.8889L7.09531 12.8889L8.77952 14.5333C8.96159 14.7111 9.05263 14.9221 9.05263 15.1662C9.05263 15.411 8.96159 15.6222 8.77952 15.8C8.61261 15.9778 8.40383 16.0667 8.15317 16.0667C7.90312 16.0667 7.69464 15.9852 7.52774 15.8222L4.25036 12.6222C4.15932 12.5333 4.09468 12.437 4.05644 12.3333C4.01881 12.2296 4 12.1185 4 12C4 11.8815 4.01881 11.7704 4.05644 11.6667C4.09468 11.563 4.15932 11.4667 4.25036 11.3778L7.52774 8.17778C7.72499 7.98519 7.94105 7.90015 8.17593 7.92267C8.41142 7.94459 8.61261 8.03704 8.77952 8.2V8.2ZM18.1792 4C18.6799 4 19.1087 4.17393 19.4656 4.52178C19.8219 4.87022 20 5.28889 20 5.77778L20 18.2222C20 18.7111 19.8219 19.1298 19.4656 19.4782C19.1087 19.8261 18.6799 20 18.1792 20L12.7169 20C12.459 20 12.2426 19.915 12.0678 19.7449C11.8936 19.5742 11.8065 19.363 11.8065 19.1111C11.8065 18.8593 11.8936 18.6483 12.0678 18.4782C12.2426 18.3076 12.459 18.2222 12.7169 18.2222L18.1792 18.2222L18.1792 5.77778L12.7169 5.77778C12.459 5.77778 12.2426 5.69244 12.0678 5.52178C11.8936 5.3517 11.8065 5.14074 11.8065 4.88889C11.8065 4.63704 11.8936 4.42607 12.0678 4.256C12.2426 4.08533 12.459 4 12.7169 4L18.1792 4Z" fill="black"/>
</svg>
